<?xml version="1.0" encoding="UTF-8"?>
<svg xmlns="http://www.w3.org/2000/svg" xmlns:xlink="http://www.w3.org/1999/xlink" width="20px" height="20px" viewBox="0 0 20 20" version="1.1">
<g id="surface1">
<path style=" stroke:none;fill-rule:nonzero;fill:rgb(0%,0%,0%);fill-opacity:1;" d="M 19.996094 9.910156 C 19.996094 9.890625 19.992188 9.875 19.988281 9.855469 C 19.988281 9.84375 19.984375 9.832031 19.984375 9.820312 C 19.980469 9.800781 19.976562 9.78125 19.972656 9.765625 C 19.96875 9.753906 19.964844 9.738281 19.960938 9.726562 C 19.957031 9.710938 19.949219 9.691406 19.945312 9.675781 C 19.9375 9.660156 19.933594 9.648438 19.925781 9.632812 C 19.921875 9.617188 19.914062 9.605469 19.910156 9.589844 C 19.902344 9.574219 19.890625 9.554688 19.882812 9.539062 C 19.878906 9.53125 19.875 9.523438 19.871094 9.515625 C 19.867188 9.511719 19.863281 9.503906 19.863281 9.5 C 19.859375 9.496094 19.859375 9.492188 19.855469 9.488281 C 18.9375 7.914062 17.621094 6.589844 16.046875 5.660156 C 15.296875 5.21875 14.496094 4.875 13.664062 4.628906 C 13.644531 4.691406 13.621094 4.75 13.585938 4.8125 C 12.714844 6.390625 12.257812 8.183594 12.257812 10 C 12.257812 11.816406 12.714844 13.609375 13.585938 15.1875 C 13.621094 15.25 13.644531 15.308594 13.664062 15.371094 C 14.496094 15.125 15.296875 14.78125 16.046875 14.339844 C 17.621094 13.410156 18.9375 12.085938 19.855469 10.507812 C 19.859375 10.507812 19.859375 10.503906 19.863281 10.5 C 19.863281 10.496094 19.867188 10.488281 19.871094 10.484375 C 19.875 10.476562 19.878906 10.46875 19.882812 10.460938 C 19.890625 10.441406 19.902344 10.425781 19.910156 10.410156 C 19.914062 10.394531 19.921875 10.382812 19.925781 10.367188 C 19.933594 10.351562 19.9375 10.339844 19.945312 10.324219 C 19.949219 10.308594 19.957031 10.289062 19.960938 10.273438 C 19.964844 10.261719 19.96875 10.246094 19.972656 10.234375 C 19.976562 10.21875 19.980469 10.199219 19.984375 10.179688 C 19.984375 10.167969 19.988281 10.15625 19.988281 10.144531 C 19.992188 10.125 19.992188 10.109375 19.996094 10.089844 C 19.996094 10.074219 20 10.0625 20 10.046875 C 20 10.03125 20 10.015625 20 10 C 20 9.984375 20 9.96875 20 9.953125 C 20 9.9375 19.996094 9.921875 19.996094 9.910156 Z M 19.996094 9.910156 "/>
<path style=" stroke:none;fill-rule:nonzero;fill:rgb(0%,0%,0%);fill-opacity:1;" d="M 10.648438 4.191406 C 10.539062 4.191406 10.429688 4.195312 10.324219 4.199219 C 10.292969 4.199219 10.265625 4.199219 10.234375 4.199219 C 10.152344 4.203125 10.066406 4.207031 9.980469 4.214844 C 9.957031 4.214844 9.929688 4.214844 9.90625 4.21875 C 9.679688 4.234375 9.457031 4.257812 9.234375 4.285156 C 9.230469 4.285156 9.226562 4.289062 9.222656 4.289062 C 9.113281 4.300781 9.003906 4.320312 8.898438 4.335938 C 8.886719 4.339844 8.878906 4.339844 8.867188 4.339844 C 8.640625 4.378906 8.417969 4.425781 8.195312 4.476562 C 8.1875 4.480469 8.179688 4.480469 8.171875 4.484375 C 8.074219 4.507812 7.980469 4.53125 7.886719 4.554688 C 7.859375 4.5625 7.835938 4.570312 7.808594 4.578125 C 7.726562 4.597656 7.648438 4.621094 7.566406 4.648438 C 7.542969 4.65625 7.515625 4.664062 7.488281 4.671875 C 7.398438 4.699219 7.3125 4.726562 7.222656 4.757812 C 7.164062 4.777344 7.101562 4.800781 7.042969 4.820312 C 7.015625 4.832031 6.988281 4.839844 6.957031 4.851562 C 6.367188 5.070312 5.792969 5.339844 5.25 5.660156 C 4.175781 6.292969 3.222656 7.109375 2.433594 8.066406 C 2.113281 7.15625 1.9375 6.179688 1.9375 5.160156 C 1.9375 4.625 1.503906 4.191406 0.96875 4.191406 C 0.433594 4.191406 0 4.625 0 5.160156 C 0 6.902344 0.421875 8.546875 1.164062 10 C 0.421875 11.453125 0 13.097656 0 14.839844 C 0 15.375 0.433594 15.808594 0.96875 15.808594 C 1.503906 15.808594 1.9375 15.375 1.9375 14.839844 C 1.9375 13.820312 2.113281 12.84375 2.433594 11.933594 C 3.222656 12.890625 4.175781 13.707031 5.25 14.339844 C 5.796875 14.660156 6.371094 14.933594 6.964844 15.152344 C 6.988281 15.160156 7.011719 15.167969 7.035156 15.175781 C 7.097656 15.199219 7.160156 15.222656 7.226562 15.242188 C 7.3125 15.273438 7.398438 15.300781 7.488281 15.328125 C 7.515625 15.339844 7.546875 15.347656 7.578125 15.355469 C 7.652344 15.378906 7.730469 15.402344 7.804688 15.421875 C 7.835938 15.429688 7.863281 15.4375 7.890625 15.445312 C 7.980469 15.46875 8.070312 15.492188 8.164062 15.515625 C 8.175781 15.515625 8.1875 15.519531 8.199219 15.523438 C 8.417969 15.574219 8.640625 15.621094 8.863281 15.65625 C 8.875 15.660156 8.890625 15.660156 8.902344 15.664062 C 9.007812 15.679688 9.109375 15.695312 9.214844 15.710938 C 9.222656 15.710938 9.230469 15.714844 9.238281 15.714844 C 9.457031 15.742188 9.679688 15.765625 9.902344 15.78125 C 9.929688 15.785156 9.957031 15.785156 9.988281 15.785156 C 10.066406 15.792969 10.148438 15.796875 10.230469 15.800781 C 10.261719 15.800781 10.292969 15.800781 10.324219 15.804688 C 10.425781 15.804688 10.53125 15.808594 10.632812 15.808594 C 10.636719 15.808594 10.644531 15.808594 10.648438 15.808594 C 11 15.808594 11.347656 15.789062 11.695312 15.757812 C 10.796875 13.984375 10.320312 12.003906 10.320312 10 C 10.320312 7.996094 10.796875 6.015625 11.699219 4.242188 C 11.347656 4.210938 11 4.191406 10.648438 4.191406 Z M 10.648438 4.191406 "/>
</g>
</svg>
